<?xml version="1.0" encoding="UTF-8" standalone="no"?>
<svg width="100%" height="100%" viewBox="0 0 250 113" version="1.1" xmlns="http://www.w3.org/2000/svg" xmlns:xlink="http://www.w3.org/1999/xlink" xml:space="preserve" xmlns:serif="http://www.serif.com/" style="fill-rule:evenodd;clip-rule:evenodd;stroke-linejoin:round;stroke-miterlimit:2;">
    <g transform="matrix(1,0,0,1,-173.549,-325.6)">
        <g transform="matrix(1,0,0,1,172.425,320.575)">
            <path d="M126.898,117.862L130.585,117.862L130.585,111.472L130.637,111.472C131.547,112.795 133.029,113.496 134.667,113.496C138.617,113.496 140.564,110.147 140.564,106.559C140.564,102.738 138.669,99.336 134.459,99.336C132.795,99.336 131.365,99.96 130.455,101.412L130.403,101.412L130.403,99.7L126.898,99.7L126.898,117.862ZM24.714,100.814C24.22,96.528 20.764,94.139 16.71,94.139C10.993,94.139 7.592,98.424 7.592,103.935C7.592,109.289 10.993,113.574 16.71,113.574C21.284,113.574 24.454,110.64 24.87,105.989L20.92,105.989C20.608,108.458 19.205,110.147 16.71,110.147C13.046,110.147 11.669,107.029 11.669,103.935C11.669,100.685 13.046,97.566 16.71,97.566C18.711,97.566 20.478,98.969 20.764,100.814L24.714,100.814ZM53.482,107.311C53.767,103.18 51.533,99.336 46.959,99.336C42.88,99.336 40.102,102.4 40.102,106.429C40.102,110.588 42.724,113.496 46.959,113.496C49.999,113.496 52.208,112.172 53.248,108.978L49.999,108.978C49.765,109.808 48.57,110.719 47.089,110.719C45.01,110.719 43.892,109.678 43.788,107.311L53.482,107.311ZM124.712,107.311C124.998,103.18 122.763,99.336 118.189,99.336C114.11,99.336 111.332,102.4 111.332,106.429C111.332,110.588 113.954,113.496 118.189,113.496C121.23,113.496 123.439,112.172 124.478,108.978L121.23,108.978C120.996,109.808 119.8,110.719 118.319,110.719C116.24,110.719 115.123,109.678 115.019,107.311L124.712,107.311ZM68.424,104.428C68.216,100.998 65.28,99.336 62.109,99.336C57.745,99.336 55.252,102.426 55.252,106.612C55.252,110.641 57.978,113.496 62.031,113.496C65.592,113.496 68.008,111.549 68.502,107.99L64.942,107.99C64.708,109.653 63.746,110.719 62.005,110.719C59.692,110.719 58.939,108.432 58.939,106.482C58.939,104.506 59.718,102.114 62.083,102.114C63.669,102.115 64.578,102.894 64.812,104.427L68.424,104.428ZM158.187,113.132L161.692,113.132L161.692,111.42L161.743,111.42C162.55,112.899 164.188,113.496 166.164,113.496C168.84,113.496 171.722,111.316 171.722,106.403C171.722,101.491 168.84,99.336 166.164,99.336C164.5,99.334 162.836,99.958 161.925,101.334L161.873,101.334L161.873,94.581L158.187,94.581L158.187,113.132ZM200.23,104.428C200.022,100.998 197.086,99.336 193.915,99.336C189.551,99.336 187.058,102.426 187.058,106.612C187.058,110.641 189.784,113.496 193.837,113.496C197.398,113.496 199.814,111.549 200.308,107.99L196.748,107.99C196.514,109.653 195.553,110.719 193.811,110.719C191.499,110.719 190.745,108.432 190.745,106.482C190.745,104.506 191.525,102.114 193.889,102.114C195.475,102.115 196.384,102.894 196.618,104.427L200.23,104.428ZM155.377,99.7L151.69,99.7L151.69,106.743C151.69,109.471 150.832,110.589 148.829,110.589C147.087,110.589 146.463,109.497 146.463,107.288L146.463,99.7L142.776,99.7L142.776,107.964C142.776,111.29 143.763,113.496 147.685,113.496C149.245,113.496 150.858,112.795 151.794,111.264L151.872,111.264L151.872,113.132L155.377,113.132L155.377,99.7ZM93.609,113.132L97.686,113.132L97.686,105.882L101.767,105.882C103.821,105.882 104.575,106.739 104.861,108.689C105.069,110.17 105.043,111.963 105.51,113.132L109.588,113.132C108.834,112.119 108.886,109.91 108.808,108.74C108.678,106.843 108.107,104.947 106.108,104.402L106.108,104.35C108.185,103.52 109.042,101.882 109.042,99.698C109.042,96.891 106.939,94.581 103.613,94.581L93.609,94.581L93.609,113.132ZM70.584,113.132L74.271,113.132L74.271,106.09C74.271,103.361 75.129,102.244 77.132,102.244C78.874,102.244 79.498,103.335 79.498,105.544L79.498,113.132L83.185,113.132L83.185,104.868C83.185,101.543 82.198,99.336 78.276,99.336C76.898,99.334 75.285,100.036 74.349,101.568L74.271,101.568L74.271,94.581L70.584,94.581L70.584,113.132ZM180.873,113.132L184.56,113.132L184.56,99.7L180.873,99.7L180.873,113.132ZM174.169,113.132L177.855,113.132L177.855,94.581L174.169,94.581L174.169,113.132ZM26.431,113.132L38.775,113.132L38.775,110.355L31.29,110.355L38.281,102.478L38.281,99.7L26.95,99.7L26.95,102.478L33.421,102.478L26.431,110.355L26.431,113.132ZM133.679,110.719C131.287,110.719 130.455,108.639 130.455,106.455C130.455,104.272 131.235,102.114 133.653,102.114C136.019,102.114 136.877,104.298 136.877,106.455C136.877,108.639 136.097,110.719 133.679,110.719ZM168.036,106.429C168.036,108.665 167.074,110.719 164.89,110.719C162.706,110.719 161.743,108.665 161.743,106.429C161.743,104.142 162.706,102.114 164.89,102.114C167.074,102.114 168.036,104.142 168.036,106.429ZM115.019,104.976C115.097,103.935 115.695,102.114 118.085,102.114C119.878,102.114 120.684,103.102 121.022,104.976L115.019,104.976ZM43.788,104.976C43.866,103.935 44.464,102.114 46.855,102.114C48.648,102.114 49.454,103.102 49.791,104.976L43.788,104.976ZM97.686,97.748L102.157,97.748C104.003,97.748 104.965,98.528 104.965,100.322C104.965,102.195 104.003,102.975 102.157,102.975L97.686,102.975L97.686,97.748ZM184.56,94.581L180.873,94.581L180.873,97.618L184.56,97.618L184.56,94.581Z" style="fill:rgb(237,190,56);fill-rule:nonzero;"/>
        </g>
        <g transform="matrix(1,0,0,1,172.425,320.575)">
            <path d="M206.475,88.825C168.075,53.025 174.675,19.925 175.175,19.925C189.675,19.925 189.275,5.025 189.275,5.025L223.975,5.025C223.975,5.025 223.675,19.925 238.075,19.925C238.575,19.925 245.175,53.025 206.775,88.825L206.475,88.825ZM123.564,54.625C122.734,61.522 118.439,81.525 90.775,81.525C71.375,81.525 61.375,69.025 60.375,51.125C59.175,29.525 71.675,11.525 94.475,11.525C109.375,11.525 122.975,18.025 124.475,38.025L104.975,38.025C104.775,31.725 101.675,28.225 95.275,28.225C83.875,28.225 80.475,41.325 80.975,50.825C81.275,56.325 83.075,64.925 92.475,64.925C98.975,64.925 102.375,60.525 103.375,54.625L123.564,54.625L123.575,54.525L123.575,54.625L123.564,54.625ZM50.475,58.525C48.475,73.925 40.575,81.425 24.175,81.425C7.275,81.425 1.675,72.325 1.175,63.925C0.975,60.725 1.375,55.525 2.175,51.725L20.675,51.725C20.475,54.125 19.475,58.325 19.575,60.825C19.775,63.725 21.375,65.525 24.275,65.525C27.975,65.525 29.175,63.425 29.575,60.125L37.075,13.025L57.675,13.025L50.475,58.525ZM244.075,73.225L245.475,73.225L247.575,78.925L249.675,73.225L250.875,73.225L250.875,80.025L249.975,80.025L249.975,74.425L247.875,80.025L247.075,80.025L244.975,74.425L244.975,80.025L244.075,80.025L244.075,73.225ZM139.375,13.025L159.975,13.025L149.775,79.925L129.175,79.925L139.375,13.025ZM240.375,73.925L238.075,73.925L238.075,73.125L243.475,73.125L243.475,73.925L241.275,73.925L241.275,79.925L240.375,79.925L240.375,73.925ZM206.475,77.225C181.175,52.025 182.175,26.025 182.975,25.725C195.475,21.525 195.575,12.625 195.575,12.625L217.475,12.625C217.475,12.625 217.575,21.625 230.075,25.725C230.775,25.925 231.875,51.925 206.475,77.225ZM224.875,36.325C224.875,46.425 216.675,54.625 206.575,54.625C196.475,54.625 188.275,46.425 188.275,36.325C188.275,26.225 196.475,18.025 206.575,18.025C216.675,18.125 224.875,26.325 224.875,36.325ZM197.01,46.79L195.045,48.756C197.956,51.48 201.824,53.192 206.075,53.317L206.075,50.516L206.075,50.516C205.559,50.497 205.044,50.451 204.533,50.377C203.735,50.26 202.948,50.074 202.182,49.823C201.048,49.45 199.963,48.933 198.959,48.289C198.503,47.996 198.063,47.678 197.643,47.336C197.428,47.161 197.218,46.979 197.013,46.792L197.01,46.79ZM216.193,46.742C213.794,48.959 210.638,50.366 207.175,50.512L207.175,53.314C211.413,53.165 215.264,51.438 218.158,48.707L216.193,46.742ZM199.389,44.411L197.784,46.016C199.982,48.03 202.878,49.295 206.075,49.415L206.075,47.113C203.504,46.999 201.177,46 199.389,44.411ZM212.162,45.587C210.695,46.468 208.998,47.01 207.175,47.109L207.175,49.411C210.177,49.276 212.908,48.132 215.037,46.308C214.556,46.038 214.086,45.688 213.575,45.625C213.059,45.567 212.575,45.675 212.162,45.587ZM189.683,36.925C189.809,41.201 191.54,45.09 194.292,48.006L196.25,46.04C193.98,43.631 192.536,40.435 192.388,36.925L189.683,36.925ZM217.84,44.937C217.56,45.302 217.263,45.653 216.949,45.988L218.907,47.954C221.631,45.044 223.343,41.176 223.468,36.925L220.763,36.925C220.675,39.004 220.132,40.973 219.233,42.733C219.771,42.844 220.161,43.083 220.075,43.725C219.275,43.725 219.275,43.725 218.775,44.225C218.303,44.697 218.203,44.984 217.84,44.937ZM202.47,42.579C201.999,42.796 201.531,42.686 201.096,42.705L200.34,43.46C201.897,44.825 203.896,45.695 206.075,45.811L206.075,43.808C204.756,43.718 203.522,43.277 202.47,42.579ZM207.175,44.444L207.175,45.806C208.223,45.741 209.221,45.508 210.144,45.134C209.002,45.295 207.807,45.298 207.175,44.444ZM196.738,40.816C196.197,39.622 195.866,38.309 195.792,36.925L193.585,36.925C193.706,40.145 194.988,43.059 197.026,45.261L198.551,43.73C196.96,43.78 196.648,42.902 195.575,42.025C195.822,41.655 196.304,41.252 196.738,40.816ZM218.027,42.599C218.941,40.902 219.489,38.975 219.566,36.925L217.359,36.925C217.249,38.971 216.579,40.859 215.499,42.44C215.565,42.528 215.624,42.622 215.675,42.725C215.868,43.111 216.248,44.055 216.431,44.918C216.591,44.733 216.746,44.543 216.895,44.349C216.565,43.789 216.847,42.991 217.284,42.44C217.206,42.408 217.136,42.37 217.075,42.325L217.475,42.225C217.409,42.291 217.345,42.363 217.284,42.44C217.491,42.526 217.75,42.569 218.027,42.599ZM206.075,42.806L206.075,37.725L202.448,41.353C203.449,42.174 204.701,42.702 206.075,42.806ZM207.175,41.655C207.27,41.46 207.373,41.279 207.475,41.125C207.714,40.806 208.27,40.044 208.79,39.797C208.845,39.691 208.903,39.612 208.979,39.528L208.278,38.827C208.203,38.904 208.135,39.057 208.075,39.325C207.701,39.25 207.663,38.727 207.835,38.385L207.175,37.725L207.175,41.655ZM214.831,36.925C214.531,37.123 214.246,37.342 213.969,37.573C213.848,38.28 213.625,38.955 213.317,39.582C213.453,40.113 213.572,40.661 213.875,41.025C214.048,41.231 214.267,41.402 214.497,41.57C215.392,40.219 215.95,38.629 216.057,36.925L214.831,36.925ZM201.67,40.598L205.329,36.925L200.103,36.925C200.23,38.327 200.799,39.598 201.67,40.598ZM208.79,39.797C208.785,39.806 208.78,39.815 208.775,39.825L209.175,39.725C209.053,39.704 208.923,39.734 208.79,39.797ZM199.291,38.092C199.197,37.713 199.132,37.323 199.1,36.925L197.095,36.925C197.151,37.8 197.328,38.645 197.61,39.443C197.644,39.21 197.608,38.971 197.475,38.725C197.875,38.425 198.375,38.525 198.375,37.925L198.175,37.825C198.47,37.942 198.903,37.991 199.291,38.092ZM207.922,36.925L208.13,37.133C208.203,37.006 208.337,36.925 208.575,36.925L207.922,36.925ZM216.518,28.033C216.388,28.027 216.242,28.025 216.075,28.025C215.99,28.025 215.881,28.033 215.76,28.04L214.763,29.038C215.351,29.782 216.109,30.363 216.775,31.125C216.492,31.162 216.234,31.132 215.995,31.053C216.798,32.481 217.285,34.105 217.364,35.825L219.562,35.825C219.428,32.856 218.307,30.152 216.518,28.033ZM197.032,27.581C195.011,29.762 193.732,32.641 193.589,35.825L195.787,35.825C195.903,33.228 196.92,30.88 198.536,29.085L197.032,27.581ZM199.469,30.018C198.08,31.585 197.204,33.611 197.088,35.825L199.092,35.825C199.205,34.169 199.87,32.649 200.903,31.452L199.469,30.018ZM202.626,33.176L201.593,32.142C200.745,33.152 200.2,34.425 200.094,35.825L204.555,35.825C203.963,35.403 203.548,34.896 203.739,34.288L202.968,33.517C202.953,34.042 202.942,34.556 202.875,35.025C202.375,34.425 201.875,34.025 202.575,33.225C202.592,33.208 202.609,33.192 202.626,33.176ZM207.975,35.825L208.299,35.825C208.28,35.725 208.268,35.628 208.266,35.534L207.975,35.825ZM194.284,24.851C194.053,25.098 193.828,25.351 193.61,25.611C193.175,26.131 192.772,26.677 192.402,27.245C191.608,28.463 190.973,29.784 190.517,31.165C190.217,32.076 189.995,33.014 189.855,33.963C189.796,34.368 189.751,34.774 189.721,35.182L189.686,35.825L192.384,35.825L192.384,35.824C192.403,35.308 192.449,34.793 192.524,34.282C192.639,33.491 192.822,32.711 193.071,31.952C193.446,30.804 193.97,29.705 194.623,28.69C194.924,28.222 195.252,27.772 195.605,27.343C195.781,27.128 195.963,26.919 196.151,26.715L196.158,26.707L194.293,24.842L194.284,24.851ZM218.654,28.851C219.919,30.894 220.679,33.278 220.767,35.825L223.465,35.825C223.32,31.569 221.635,27.736 218.944,24.856L217.059,26.741C217.215,26.912 217.367,27.087 217.515,27.266C218.34,27.785 219.266,28.213 220.075,28.525C220.075,29.211 219.262,29.083 218.654,28.851ZM212.415,31.385C212.916,32.126 213.325,32.917 213.775,33.625C214.37,34.474 215.18,34.962 215.717,35.825L216.062,35.825C215.949,33.636 215.091,31.631 213.729,30.071L212.415,31.385ZM207.37,29.872C207.306,29.991 207.241,30.119 207.175,30.253L207.175,35.071L208.202,34.04C208.08,33.794 208.023,33.541 208.075,33.125C208.175,32.525 208.475,31.925 208.675,31.325C208.83,30.965 209.01,30.639 209.214,30.372C208.637,30.121 208.017,29.95 207.37,29.872ZM206.075,32.573C205.674,33.199 205.587,32.69 204.675,32.525C204.352,32.478 203.986,32.518 203.637,32.622L204.672,33.662C205.097,33.282 205.314,33.012 205.875,33.925C205.942,34.024 206.009,34.124 206.075,34.226L206.075,32.573ZM203.551,30.565C203.13,30.786 202.736,31.052 202.376,31.356L203.069,32.052C203.145,31.523 203.284,31.015 203.551,30.565ZM206.075,26.837C203.834,26.953 201.813,27.839 200.256,29.228L201.687,30.665C202.887,29.625 204.413,28.954 206.075,28.842L206.075,26.837ZM211.732,30.496L212.948,29.276C211.408,27.88 209.403,26.981 207.175,26.843L207.175,28.848C208.233,28.931 209.223,29.23 210.105,29.7C210.518,29.592 210.98,29.729 211.475,30.225C211.564,30.313 211.649,30.404 211.732,30.496ZM206.075,23.434C202.899,23.553 200.021,24.802 197.83,26.792L199.326,28.294C201.123,26.673 203.474,25.652 206.075,25.536L206.075,23.434ZM214.476,26.087C212.437,24.529 209.919,23.562 207.175,23.438L207.175,25.541C209.048,25.644 210.788,26.224 212.281,27.159C212.408,26.889 212.863,27.187 213.241,27.347L213.475,27.425C213.404,27.41 213.325,27.382 213.241,27.347L213.175,27.325C213.508,27.546 213.809,27.829 214.08,28.139L214.564,27.652C214.495,27.512 214.575,27.379 214.575,27.125C214.485,26.761 214.476,26.418 214.476,26.087ZM215.663,25.407L216.268,25.941L218.145,24.057C215.266,21.366 211.431,19.68 207.175,19.535L207.175,22.137L207.197,22.138C207.717,22.161 208.236,22.211 208.751,22.289C209.552,22.412 210.343,22.603 211.111,22.861C212.223,23.234 213.287,23.747 214.273,24.384L214.339,24.427C214.313,24.358 214.292,24.29 214.275,24.225C214.175,23.825 214.275,23.425 214.175,23.025C214.616,22.804 215.165,24.365 215.663,25.407ZM206.06,19.532C205.853,19.539 205.646,19.549 205.44,19.563C205.032,19.59 204.624,19.632 204.219,19.689C203.268,19.823 202.328,20.039 201.414,20.334C200.038,20.779 198.721,21.402 197.503,22.182C196.939,22.543 196.396,22.937 195.879,23.362C195.617,23.577 195.362,23.8 195.113,24.03L195.095,24.047L196.953,25.912C199.375,23.671 202.571,22.257 206.075,22.133L206.075,19.532L206.06,19.532ZM208.775,21.225C208.675,21.525 209.075,21.725 209.375,21.625C209.575,20.925 208.975,20.825 208.475,21.125C208.575,21.125 208.575,21.225 208.775,21.225Z" style="fill:rgb(0,150,214);"/>
        </g>
    </g>
</svg>
