<?xml version="1.0" encoding="UTF-8" standalone="no"?>
<!DOCTYPE svg PUBLIC "-//W3C//DTD SVG 1.1//EN" "http://www.w3.org/Graphics/SVG/1.1/DTD/svg11.dtd">
<svg width="100%" height="100%" viewBox="0 0 139 112" version="1.1" xmlns="http://www.w3.org/2000/svg" xmlns:xlink="http://www.w3.org/1999/xlink" xml:space="preserve" xmlns:serif="http://www.serif.com/" style="fill-rule:evenodd;clip-rule:evenodd;stroke-linejoin:round;stroke-miterlimit:2;">
    <g transform="matrix(1,0,0,1,-5.02494,-5.02494)">
        <g transform="matrix(-1,0,0,1,477.468,-393.729)">
            <rect x="333.866" y="398.754" width="138.577" height="111.482" style="fill:white;"/>
        </g>
        <g transform="matrix(1,0,0,1,35.6633,37.5604)">
            <path d="M0,-0.703C0.688,-0.703 1.215,-0.9 1.582,-1.296C1.948,-1.692 2.131,-2.248 2.131,-2.966C2.131,-3.669 1.948,-4.214 1.582,-4.602C1.215,-4.991 0.688,-5.185 0,-5.185L-3.713,-5.185L-3.713,-0.703L0,-0.703ZM-6.899,-7.887L0.286,-7.887C1.97,-7.887 3.237,-7.459 4.086,-6.602C4.936,-5.745 5.361,-4.533 5.361,-2.966C5.361,-1.398 4.917,-0.179 4.031,0.693C3.145,1.564 1.823,1.999 0.066,1.999L-3.713,1.999L-3.713,7.184L-6.899,7.184L-6.899,-7.887Z" style="fill:rgb(255,100,0);fill-rule:nonzero;"/>
        </g>
        <g transform="matrix(1,0,0,1,-328.841,-441.657)">
            <rect x="371.818" y="470.517" width="3.01" height="15.884" style="fill:rgb(255,100,0);"/>
        </g>
        <g transform="matrix(1,0,0,1,47.7512,34.5287)">
            <path d="M0,8.876L5.471,1.12L0.33,1.12L0.33,-1.34L9.843,-1.34L9.843,-0.022L4.35,7.756L10.041,7.756L10.041,10.216L0,10.216L0,8.876Z" style="fill:rgb(255,100,0);fill-rule:nonzero;"/>
        </g>
        <g transform="matrix(1,0,0,1,66.4499,40.2624)">
            <path d="M0,-2.592C0,-4.188 -0.666,-4.987 -1.999,-4.987C-2.761,-4.987 -3.336,-4.789 -3.724,-4.394C-4.112,-3.998 -4.35,-3.397 -4.438,-2.592L0,-2.592ZM-6.163,3.274C-7.078,2.293 -7.536,0.769 -7.536,-1.296C-7.536,-3.361 -7.078,-4.884 -6.163,-5.865C-5.247,-6.847 -3.859,-7.338 -1.999,-7.338C-0.285,-7.338 0.996,-6.843 1.846,-5.855C2.695,-4.866 3.12,-3.346 3.12,-1.296L3.12,-0.593L-4.482,-0.593C-4.453,0.432 -4.248,1.191 -3.866,1.681C-3.486,2.172 -2.849,2.417 -1.955,2.417C-1.326,2.417 -0.816,2.241 -0.428,1.89C-0.04,1.538 0.154,1.041 0.154,0.396L3.12,0.396C3.12,1.846 2.651,2.934 1.714,3.658C0.776,4.384 -0.461,4.746 -1.999,4.746C-3.859,4.746 -5.247,4.256 -6.163,3.274" style="fill:rgb(255,100,0);fill-rule:nonzero;"/>
        </g>
        <g transform="matrix(1,0,0,1,73.2321,44.7443)">
            <path d="M0,-15.884L2.439,-15.884L3.669,-14.368L4.878,-15.884L7.316,-15.884L5.009,-12.918L2.329,-12.918L0,-15.884ZM-1.494,-11.555L1.077,-11.555L1.297,-10.04L1.45,-10.04C2.388,-11.226 3.589,-11.82 5.053,-11.82C6.24,-11.82 7.173,-11.497 7.854,-10.853C8.536,-10.208 8.876,-9.176 8.876,-7.755L8.876,0L5.866,0L5.866,-7.117C5.866,-7.835 5.698,-8.356 5.361,-8.678C5.024,-9 4.526,-9.161 3.867,-9.161C3.193,-9.161 2.633,-8.923 2.187,-8.447C1.739,-7.97 1.516,-7.382 1.516,-6.679L1.516,0L-1.494,0L-1.494,-11.555Z" style="fill:rgb(255,100,0);fill-rule:nonzero;"/>
        </g>
        <g transform="matrix(1,0,0,1,85.5822,33.9247)">
            <path d="M0,10.084C-0.916,9.417 -1.374,8.528 -1.374,7.415L-1.352,7.151L1.571,7.151L1.571,7.305C1.585,7.817 1.816,8.188 2.263,8.415C2.709,8.642 3.255,8.755 3.899,8.755C4.5,8.755 5.013,8.674 5.437,8.513C5.862,8.352 6.075,8.089 6.075,7.723C6.075,7.313 5.858,7.005 5.426,6.799C4.994,6.595 4.317,6.39 3.395,6.185C2.442,5.964 1.666,5.742 1.065,5.514C0.465,5.287 -0.055,4.932 -0.495,4.449C-0.934,3.965 -1.154,3.321 -1.154,2.516C-1.154,1.387 -0.681,0.52 0.263,-0.088C1.208,-0.696 2.428,-1 3.921,-1C5.313,-1 6.462,-0.718 7.371,-0.154C8.279,0.41 8.733,1.175 8.733,2.142L8.711,2.647L5.789,2.647L5.789,2.603C5.774,2.179 5.591,1.86 5.24,1.647C4.888,1.436 4.412,1.329 3.812,1.329C3.211,1.329 2.735,1.41 2.384,1.571C2.032,1.732 1.856,1.959 1.856,2.251C1.856,2.618 2.058,2.889 2.46,3.065C2.863,3.24 3.511,3.416 4.405,3.592C5.386,3.812 6.185,4.032 6.799,4.251C7.415,4.471 7.95,4.83 8.404,5.328C8.857,5.825 9.084,6.5 9.084,7.349C9.084,9.839 7.319,11.084 3.79,11.084C2.178,11.084 0.915,10.751 0,10.084" style="fill:rgb(255,100,0);fill-rule:nonzero;"/>
        </g>
        <g transform="matrix(1,0,0,1,96.7038,44.7443)">
            <path d="M0,-15.884L3.01,-15.884L3.01,-6.964L6.833,-11.555L10.304,-11.555L6.481,-7.117L10.523,0L7.074,0L4.548,-4.899L3.01,-3.405L3.01,0L0,0L0,-15.884Z" style="fill:rgb(255,100,0);fill-rule:nonzero;"/>
        </g>
        <g transform="matrix(1,0,0,1,114.477,48.7433)">
            <path d="M0,-19.883L2.922,-19.883L2.944,-19.817L0.571,-16.983L-1.735,-16.983L0,-19.883ZM-4.394,-0.066C-4.701,-0.11 -4.939,-0.154 -5.107,-0.197C-5.276,-0.241 -5.383,-0.271 -5.427,-0.285L-5.427,-2.395L-3.998,-2.395C-3.485,-2.395 -3.068,-2.519 -2.746,-2.768C-2.424,-3.017 -2.16,-3.427 -1.955,-3.999L-6.481,-15.554L-3.339,-15.554L-1.164,-10.128C-1.018,-9.747 -0.856,-9.209 -0.681,-8.513C-0.505,-7.818 -0.396,-7.352 -0.352,-7.118L-0.241,-7.118C-0.184,-7.338 -0.076,-7.74 0.077,-8.327C0.231,-8.912 0.396,-9.506 0.571,-10.106L2.285,-15.554L5.34,-15.554L1.45,-4.591C1.099,-3.625 0.732,-2.816 0.352,-2.164C-0.029,-1.512 -0.523,-0.988 -1.131,-0.593C-1.739,-0.197 -2.482,0 -3.361,0C-3.742,0 -4.086,-0.022 -4.394,-0.066" style="fill:rgb(255,100,0);fill-rule:nonzero;"/>
        </g>
        <g transform="matrix(1,0,0,1,36.2346,56.246)">
            <path d="M0,9.314C0.38,8.779 0.571,7.971 0.571,6.886L0.571,6.491C0.571,5.407 0.38,4.598 0,4.063C-0.381,3.529 -1.018,3.261 -1.912,3.261C-3.552,3.261 -4.373,4.353 -4.373,6.535L-4.373,6.886C-4.373,9.04 -3.552,10.116 -1.912,10.116C-1.018,10.116 -0.381,9.849 0,9.314M-2.988,12.28C-3.604,11.981 -4.094,11.537 -4.46,10.951L-4.614,10.951L-4.812,12.467L-7.382,12.467L-7.382,-3.417L-4.373,-3.417L-4.373,2.251L-4.24,2.251C-3.904,1.738 -3.438,1.342 -2.845,1.064C-2.252,0.786 -1.568,0.647 -0.791,0.647C0.556,0.647 1.637,1.152 2.449,2.163C3.263,3.173 3.669,4.675 3.669,6.667C3.669,8.703 3.266,10.222 2.46,11.226C1.655,12.229 0.52,12.731 -0.945,12.731C-1.692,12.731 -2.373,12.58 -2.988,12.28" style="fill:rgb(51,0,102);fill-rule:nonzero;"/>
        </g>
        <g transform="matrix(1,0,0,1,42.9616,58.1237)">
            <path d="M0,9.886C-0.681,9.242 -1.021,8.209 -1.021,6.788L-1.021,-0.967L1.988,-0.967L1.988,6.151C1.988,6.868 2.156,7.389 2.494,7.711C2.831,8.033 3.329,8.194 3.988,8.194C4.661,8.194 5.221,7.956 5.668,7.48C6.115,7.005 6.338,6.415 6.338,5.711L6.338,-0.967L9.348,-0.967L9.348,10.589L6.778,10.589L6.558,9.074L6.404,9.074C5.467,10.259 4.266,10.853 2.801,10.853C1.615,10.853 0.681,10.531 0,9.886" style="fill:rgb(51,0,102);fill-rule:nonzero;"/>
        </g>
        <g transform="matrix(1,0,0,1,55.8122,57.8925)">
            <path d="M0,10.084C-0.916,9.417 -1.374,8.528 -1.374,7.415L-1.352,7.151L1.571,7.151L1.571,7.305C1.585,7.817 1.816,8.188 2.263,8.415C2.709,8.642 3.255,8.755 3.899,8.755C4.5,8.755 5.013,8.674 5.437,8.513C5.862,8.352 6.075,8.089 6.075,7.723C6.075,7.313 5.858,7.005 5.426,6.799C4.995,6.595 4.317,6.39 3.395,6.185C2.442,5.965 1.666,5.742 1.065,5.514C0.465,5.287 -0.055,4.932 -0.495,4.449C-0.934,3.965 -1.153,3.321 -1.153,2.516C-1.153,1.387 -0.681,0.52 0.264,-0.088C1.208,-0.696 2.428,-1 3.922,-1C5.313,-1 6.462,-0.718 7.371,-0.154C8.279,0.41 8.733,1.175 8.733,2.142L8.711,2.647L5.789,2.647L5.789,2.603C5.774,2.179 5.591,1.86 5.24,1.647C4.888,1.436 4.412,1.329 3.812,1.329C3.211,1.329 2.735,1.41 2.384,1.571C2.032,1.732 1.856,1.959 1.856,2.251C1.856,2.618 2.058,2.889 2.46,3.065C2.863,3.24 3.511,3.416 4.405,3.592C5.386,3.812 6.185,4.032 6.8,4.251C7.415,4.471 7.949,4.83 8.404,5.328C8.857,5.826 9.084,6.5 9.084,7.349C9.084,9.839 7.319,11.084 3.79,11.084C2.178,11.084 0.915,10.751 0,10.084" style="fill:rgb(51,0,102);fill-rule:nonzero;"/>
        </g>
        <g transform="matrix(1,0,0,1,-328.841,-393.719)">
            <path d="M395.796,450.876L398.806,450.876L398.806,462.432L395.796,462.432L395.796,450.876ZM395.796,446.548L398.806,446.548L398.806,449.272L395.796,449.272L395.796,446.548Z" style="fill:rgb(51,0,102);fill-rule:nonzero;"/>
        </g>
        <g transform="matrix(1,0,0,1,72.6389,68.4487)">
            <path d="M0,-11.292L2.571,-11.292L2.791,-9.777L2.944,-9.777C3.882,-10.962 5.083,-11.556 6.547,-11.556C7.734,-11.556 8.667,-11.234 9.349,-10.589C10.03,-9.944 10.371,-8.912 10.371,-7.491L10.371,0.264L7.36,0.264L7.36,-6.854C7.36,-7.572 7.192,-8.092 6.855,-8.415C6.518,-8.736 6.02,-8.897 5.361,-8.897C4.687,-8.897 4.127,-8.66 3.681,-8.184C3.233,-7.707 3.01,-7.118 3.01,-6.415L3.01,0.264L0,0.264L0,-11.292Z" style="fill:rgb(51,0,102);fill-rule:nonzero;"/>
        </g>
        <g transform="matrix(1,0,0,1,92.5837,64.2301)">
            <path d="M0,-2.592C0,-4.188 -0.667,-4.987 -2,-4.987C-2.761,-4.987 -3.336,-4.789 -3.724,-4.394C-4.112,-3.998 -4.35,-3.397 -4.438,-2.592L0,-2.592ZM-6.163,3.275C-7.078,2.293 -7.536,0.769 -7.536,-1.296C-7.536,-3.361 -7.078,-4.884 -6.163,-5.865C-5.248,-6.847 -3.859,-7.338 -2,-7.338C-0.286,-7.338 0.996,-6.843 1.846,-5.855C2.695,-4.865 3.12,-3.346 3.12,-1.296L3.12,-0.593L-4.482,-0.593C-4.453,0.432 -4.248,1.191 -3.867,1.681C-3.486,2.173 -2.849,2.418 -1.956,2.418C-1.326,2.418 -0.816,2.241 -0.429,1.89C-0.041,1.538 0.154,1.041 0.154,0.396L3.12,0.396C3.12,1.846 2.651,2.934 1.714,3.658C0.776,4.384 -0.461,4.746 -2,4.746C-3.859,4.746 -5.248,4.256 -6.163,3.275" style="fill:rgb(51,0,102);fill-rule:nonzero;"/>
        </g>
        <g transform="matrix(1,0,0,1,98.6609,57.8925)">
            <path d="M0,10.084C-0.915,9.417 -1.373,8.528 -1.373,7.415L-1.352,7.151L1.57,7.151L1.57,7.305C1.585,7.817 1.815,8.188 2.263,8.415C2.71,8.642 3.255,8.755 3.899,8.755C4.5,8.755 5.013,8.674 5.437,8.513C5.862,8.352 6.075,8.089 6.075,7.723C6.075,7.313 5.858,7.005 5.427,6.799C4.994,6.595 4.317,6.39 3.395,6.185C2.442,5.965 1.666,5.742 1.065,5.514C0.465,5.287 -0.055,4.932 -0.494,4.449C-0.934,3.965 -1.153,3.321 -1.153,2.516C-1.153,1.387 -0.681,0.52 0.264,-0.088C1.208,-0.696 2.428,-1 3.922,-1C5.313,-1 6.463,-0.718 7.371,-0.154C8.279,0.41 8.733,1.175 8.733,2.142L8.711,2.647L5.789,2.647L5.789,2.603C5.774,2.179 5.592,1.86 5.24,1.647C4.889,1.436 4.412,1.329 3.812,1.329C3.211,1.329 2.735,1.41 2.384,1.571C2.032,1.732 1.856,1.959 1.856,2.251C1.856,2.618 2.058,2.889 2.461,3.065C2.863,3.24 3.512,3.416 4.405,3.592C5.387,3.812 6.185,4.032 6.8,4.251C7.415,4.471 7.949,4.83 8.403,5.328C8.857,5.826 9.085,6.5 9.085,7.349C9.085,9.839 7.319,11.084 3.79,11.084C2.179,11.084 0.915,10.751 0,10.084" style="fill:rgb(51,0,102);fill-rule:nonzero;"/>
        </g>
        <g transform="matrix(1,0,0,1,110.692,57.8925)">
            <path d="M0,10.084C-0.916,9.417 -1.373,8.528 -1.373,7.415L-1.352,7.151L1.57,7.151L1.57,7.305C1.585,7.817 1.815,8.188 2.263,8.415C2.709,8.642 3.255,8.755 3.899,8.755C4.5,8.755 5.013,8.674 5.437,8.513C5.862,8.352 6.074,8.089 6.074,7.723C6.074,7.313 5.858,7.005 5.427,6.799C4.994,6.595 4.317,6.39 3.395,6.185C2.441,5.965 1.666,5.742 1.065,5.514C0.465,5.287 -0.056,4.932 -0.495,4.449C-0.934,3.965 -1.153,3.321 -1.153,2.516C-1.153,1.387 -0.682,0.52 0.264,-0.088C1.208,-0.696 2.428,-1 3.921,-1C5.312,-1 6.463,-0.718 7.371,-0.154C8.278,0.41 8.733,1.175 8.733,2.142L8.711,2.647L5.789,2.647L5.789,2.603C5.774,2.179 5.591,1.86 5.24,1.647C4.888,1.436 4.412,1.329 3.812,1.329C3.211,1.329 2.735,1.41 2.384,1.571C2.032,1.732 1.856,1.959 1.856,2.251C1.856,2.618 2.058,2.889 2.46,3.065C2.863,3.24 3.512,3.416 4.405,3.592C5.386,3.812 6.185,4.032 6.8,4.251C7.415,4.471 7.949,4.83 8.403,5.328C8.857,5.826 9.084,6.5 9.084,7.349C9.084,9.839 7.319,11.084 3.79,11.084C2.178,11.084 0.915,10.751 0,10.084" style="fill:rgb(51,0,102);fill-rule:nonzero;"/>
        </g>
        <g transform="matrix(1,0,0,1,28.8523,92.6803)">
            <path d="M0,-15.884L3.01,-15.884L3.01,-6.965L6.833,-11.556L10.304,-11.556L6.481,-7.118L10.524,0L7.075,0L4.548,-4.899L3.01,-3.405L3.01,0L0,0L0,-15.884Z" style="fill:rgb(51,0,102);fill-rule:nonzero;"/>
        </g>
        <g transform="matrix(1,0,0,1,47.7033,84.1676)">
            <path d="M0,5.47C0.439,4.907 0.659,4.053 0.659,2.91L0.659,2.559C0.659,1.416 0.439,0.563 0,-0.001C-0.439,-0.564 -1.15,-0.846 -2.131,-0.846C-3.113,-0.846 -3.82,-0.564 -4.251,-0.001C-4.684,0.563 -4.899,1.416 -4.899,2.559L-4.899,2.91C-4.899,4.053 -4.684,4.907 -4.251,5.47C-3.82,6.034 -3.113,6.316 -2.131,6.316C-1.15,6.316 -0.439,6.034 0,5.47M-6.547,7.305C-7.514,6.324 -7.998,4.8 -7.998,2.735C-7.998,0.67 -7.514,-0.854 -6.547,-1.835C-5.581,-2.817 -4.108,-3.307 -2.131,-3.307C-0.154,-3.307 1.321,-2.817 2.295,-1.835C3.27,-0.854 3.757,0.67 3.757,2.735C3.757,4.8 3.27,6.324 2.295,7.305C1.321,8.286 -0.154,8.777 -2.131,8.777C-4.108,8.777 -5.581,8.286 -6.547,7.305" style="fill:rgb(51,0,102);fill-rule:nonzero;"/>
        </g>
        <g transform="matrix(1,0,0,1,54.551,78.7514)">
            <path d="M0,13.314C-0.469,12.728 -0.703,11.988 -0.703,11.095L-0.703,4.833L-2.087,4.833L-2.087,2.373L-0.637,2.373L-0.132,-0.879L2.307,-0.879L2.307,2.373L4.306,2.373L4.306,4.833L2.307,4.833L2.307,10.788C2.307,11.418 2.622,11.732 3.251,11.732L4.306,11.732L4.306,13.841C4.057,13.929 3.746,14.01 3.373,14.083C2.999,14.156 2.651,14.193 2.329,14.193C1.245,14.193 0.469,13.9 0,13.314" style="fill:rgb(51,0,102);fill-rule:nonzero;"/>
        </g>
        <g transform="matrix(1,0,0,1,67.6101,88.1979)">
            <path d="M0,-2.592C0,-4.188 -0.667,-4.987 -2,-4.987C-2.761,-4.987 -3.336,-4.789 -3.724,-4.394C-4.112,-3.998 -4.35,-3.397 -4.438,-2.592L0,-2.592ZM-6.163,3.275C-7.078,2.293 -7.536,0.769 -7.536,-1.296C-7.536,-3.361 -7.078,-4.884 -6.163,-5.865C-5.248,-6.847 -3.859,-7.338 -2,-7.338C-0.286,-7.338 0.996,-6.843 1.846,-5.855C2.695,-4.865 3.12,-3.346 3.12,-1.296L3.12,-0.592L-4.482,-0.592C-4.453,0.432 -4.248,1.191 -3.867,1.681C-3.486,2.173 -2.849,2.418 -1.956,2.418C-1.326,2.418 -0.817,2.241 -0.429,1.89C-0.041,1.538 0.154,1.041 0.154,0.396L3.12,0.396C3.12,1.846 2.651,2.934 1.714,3.659C0.776,4.384 -0.461,4.746 -2,4.746C-3.859,4.746 -5.248,4.256 -6.163,3.275" style="fill:rgb(51,0,102);fill-rule:nonzero;"/>
        </g>
        <g transform="matrix(1,0,0,1,-328.841,-345.785)">
            <rect x="401.724" y="422.581" width="3.01" height="15.884" style="fill:rgb(51,0,102);"/>
        </g>
    </g>
</svg>